<svg width="160" height="160" viewBox="0 0 160 160" fill="none" xmlns="http://www.w3.org/2000/svg">
  <rect width="160" height="160" fill="#F3BA2F"/>
  <path d="M79.997 29L93.189 42.377L66.809 68.757L53.623 55.571L79.997 29Z" fill="white"/>
  <path d="M93.189 68.757L79.997 82.135L66.809 68.757L79.997 55.382L93.189 68.757Z" fill="white"/>
  <path d="M53.624 81.944L66.809 95.129L53.624 108.315L40.438 95.129L53.624 81.944Z" fill="white"/>
  <path d="M106.376 81.944L119.562 95.129L93.189 121.312L80 108.127L106.376 81.944Z" fill="white"/>
  <path d="M80 29L93.186 42.186L66.814 68.558L53.628 55.372L80 29Z" fill="white"/>
  <path d="M93.186 68.755L80 82.132L66.814 68.755L80 55.57L93.186 68.755Z" fill="white"/>
  <path d="M53.623 81.942L66.809 95.128L53.623 108.314L40.437 95.128L53.623 81.942Z" fill="white"/>
  <path d="M106.377 81.942L119.563 95.128L93.19 121.501L80.004 108.314L106.377 81.942Z" fill="white"/>
</svg>
